<svg xmlns="http://www.w3.org/2000/svg" id="h9fig8-figure" width="310" height="310" viewBox="0 0 310 310">
  <defs>
    <clipPath id="h9fig8-__clipPath-0">
      <rect x="5.0" y="5.0" width="300.0" height="300.0"/>
    </clipPath>
    <clipPath id="h9fig8-__clipPath-1">
      <rect x="5.0" y="5.0" width="300.0" height="300.0"/>
    </clipPath>
    <marker id="h9fig8-arrow-head-end-2_None_24_60-black" markerWidth="9.0" markerHeight="8.0" markerUnits="userSpaceOnUse" orient="auto-start-reverse" refX="6.5" refY="4.0">
      <path d="M 9.0 4.0L 0.0 8.0L 1.7 5.0L 1.7 3.0L 0.0 0.0Z" fill="black" stroke="none"/>
    </marker>
    <marker id="h9fig8-arrow-head-end-2_None_24_60-black-outline" markerWidth="13.0" markerHeight="12.0" markerUnits="userSpaceOnUse" orient="auto-start-reverse" refX="8.5" refY="6.0">
      <path d="M 11.8 7.8 L 2.8 11.8 A 2 2 0 0 1 0.0 10.0 L 0.0 2.0 A 2 2 0 0 1 2.8 0.2 L 11.8 4.2 A 2 2 0 0 1 11.8 7.8 Z" fill="white" stroke="none"/>
    </marker>
  </defs>
  <g id="h9fig8-grid-axes">
    <g id="h9fig8-grid" stroke="#ccc" stroke-width="1">
      <line x1="35.0" y1="305.0" x2="35.0" y2="5.0"/>
      <line x1="65.0" y1="305.0" x2="65.0" y2="5.0"/>
      <line x1="95.0" y1="305.0" x2="95.0" y2="5.0"/>
      <line x1="125.0" y1="305.0" x2="125.0" y2="5.0"/>
      <line x1="155.0" y1="305.0" x2="155.0" y2="5.0"/>
      <line x1="185.0" y1="305.0" x2="185.0" y2="5.0"/>
      <line x1="215.0" y1="305.0" x2="215.0" y2="5.0"/>
      <line x1="245.0" y1="305.0" x2="245.0" y2="5.0"/>
      <line x1="275.0" y1="305.0" x2="275.0" y2="5.0"/>
      <line x1="5.0" y1="275.0" x2="305.0" y2="275.0"/>
      <line x1="5.0" y1="245.0" x2="305.0" y2="245.0"/>
      <line x1="5.0" y1="215.0" x2="305.0" y2="215.0"/>
      <line x1="5.0" y1="185.0" x2="305.0" y2="185.0"/>
      <line x1="5.0" y1="155.0" x2="305.0" y2="155.0"/>
      <line x1="5.0" y1="125.0" x2="305.0" y2="125.0"/>
      <line x1="5.0" y1="95.0" x2="305.0" y2="95.0"/>
      <line x1="5.0" y1="65.0" x2="305.0" y2="65.0"/>
      <line x1="5.0" y1="35.0" x2="305.0" y2="35.0"/>
    </g>
    <g id="h9fig8-axes" stroke="black" stroke-width="2">
      <line id="h9fig8-__line-18" x1="5.0" y1="155.0" x2="305.0" y2="155.0" stroke="black" stroke-width="2" marker-end="url(#h9fig8-arrow-head-end-2_None_24_60-black)" marker-start="url(#h9fig8-arrow-head-end-2_None_24_60-black)"/>
      <g id="h9fig8-__g-0">
        <line id="h9fig8-__line-19" x1="35.0" y1="158.0" x2="35.0" y2="152.0"/>
        <line id="h9fig8-__line-20" x1="65.0" y1="158.0" x2="65.0" y2="152.0"/>
        <line id="h9fig8-__line-21" x1="95.0" y1="158.0" x2="95.0" y2="152.0"/>
        <line id="h9fig8-__line-22" x1="125.0" y1="158.0" x2="125.0" y2="152.0"/>
        <line id="h9fig8-__line-23" x1="185.0" y1="158.0" x2="185.0" y2="152.0"/>
        <line id="h9fig8-__line-24" x1="215.0" y1="158.0" x2="215.0" y2="152.0"/>
        <line id="h9fig8-__line-25" x1="245.0" y1="158.0" x2="245.0" y2="152.0"/>
        <line id="h9fig8-__line-26" x1="275.0" y1="158.0" x2="275.0" y2="152.0"/>
      </g>
      <line id="h9fig8-__line-27" x1="155.0" y1="305.0" x2="155.0" y2="5.0" stroke="black" stroke-width="2" marker-end="url(#h9fig8-arrow-head-end-2_None_24_60-black)" marker-start="url(#h9fig8-arrow-head-end-2_None_24_60-black)"/>
      <g id="h9fig8-__g-1">
        <line id="h9fig8-__line-28" x1="152.0" y1="275.0" x2="158.0" y2="275.0"/>
        <line id="h9fig8-__line-29" x1="152.0" y1="245.0" x2="158.0" y2="245.0"/>
        <line id="h9fig8-__line-30" x1="152.0" y1="215.0" x2="158.0" y2="215.0"/>
        <line id="h9fig8-__line-31" x1="152.0" y1="185.0" x2="158.0" y2="185.0"/>
        <line id="h9fig8-__line-32" x1="152.0" y1="125.0" x2="158.0" y2="125.0"/>
        <line id="h9fig8-__line-33" x1="152.0" y1="95.0" x2="158.0" y2="95.0"/>
        <line id="h9fig8-__line-34" x1="152.0" y1="65.0" x2="158.0" y2="65.0"/>
        <line id="h9fig8-__line-35" x1="152.0" y1="35.0" x2="158.0" y2="35.0"/>
      </g>
    </g>
    <g id="h9fig8-__label-0" transform="translate(299.0,149.0) translate(-10.4,-8.2)">
      <g id="h9fig8-__g-2">
        <svg xmlns:xlink="http://www.w3.org/1999/xlink" style="vertical-align: -0.200px" width="10.352px" height="8.200px" role="img" focusable="false" viewBox="0 -442 572 453" x="0.0" y="0.0">
          <defs>
            <path id="h9fig8-MJX-1-TEX-I-1D465" d="M52 289Q59 331 106 386T222 442Q257 442 286 424T329 379Q371 442 430 442Q467 442 494 420T522 361Q522 332 508 314T481 292T458 288Q439 288 427 299T415 328Q415 374 465 391Q454 404 425 404Q412 404 406 402Q368 386 350 336Q290 115 290 78Q290 50 306 38T341 26Q378 26 414 59T463 140Q466 150 469 151T485 153H489Q504 153 504 145Q504 144 502 134Q486 77 440 33T333 -11Q263 -11 227 52Q186 -10 133 -10H127Q78 -10 57 16T35 71Q35 103 54 123T99 143Q142 143 142 101Q142 81 130 66T107 46T94 41L91 40Q91 39 97 36T113 29T132 26Q168 26 194 71Q203 87 217 139T245 247T261 313Q266 340 266 352Q266 380 251 392T217 404Q177 404 142 372T93 290Q91 281 88 280T72 278H58Q52 284 52 289Z"/>
          </defs>
          <g stroke="currentColor" fill="currentColor" stroke-width="0" transform="scale(1,-1)">
            <g data-mml-node="math">
              <g data-mml-node="mi" data-semantic-type="identifier" data-semantic-role="latinletter" data-semantic-font="italic" data-semantic-annotation="clearspeak:simple" data-semantic-id="0" data-semantic-speech="x">
                <use data-c="1D465" xlink:href="#h9fig8-MJX-1-TEX-I-1D465"/>
              </g>
            </g>
          </g>
        </svg>
      </g>
    </g>
    <g id="h9fig8-__label-1" transform="translate(161.0,11.0) translate(0.0,-0.0)">
      <g id="h9fig8-__g-3">
        <svg xmlns:xlink="http://www.w3.org/1999/xlink" style="vertical-align: -4.528px" width="37.992px" height="18.096px" role="img" focusable="false" viewBox="0 -750 2099 1000" x="0.0" y="0.0">
          <defs>
            <path id="h9fig8-MJX-2-TEX-I-1D439" d="M48 1Q31 1 31 11Q31 13 34 25Q38 41 42 43T65 46Q92 46 125 49Q139 52 144 61Q146 66 215 342T285 622Q285 629 281 629Q273 632 228 634H197Q191 640 191 642T193 659Q197 676 203 680H742Q749 676 749 669Q749 664 736 557T722 447Q720 440 702 440H690Q683 445 683 453Q683 454 686 477T689 530Q689 560 682 579T663 610T626 626T575 633T503 634H480Q398 633 393 631Q388 629 386 623Q385 622 352 492L320 363H375Q378 363 398 363T426 364T448 367T472 374T489 386Q502 398 511 419T524 457T529 475Q532 480 548 480H560Q567 475 567 470Q567 467 536 339T502 207Q500 200 482 200H470Q463 206 463 212Q463 215 468 234T473 274Q473 303 453 310T364 317H309L277 190Q245 66 245 60Q245 46 334 46H359Q365 40 365 39T363 19Q359 6 353 0H336Q295 2 185 2Q120 2 86 2T48 1Z"/>
            <path id="h9fig8-MJX-2-TEX-N-2061" d=""/>
            <path id="h9fig8-MJX-2-TEX-N-28" d="M94 250Q94 319 104 381T127 488T164 576T202 643T244 695T277 729T302 750H315H319Q333 750 333 741Q333 738 316 720T275 667T226 581T184 443T167 250T184 58T225 -81T274 -167T316 -220T333 -241Q333 -250 318 -250H315H302L274 -226Q180 -141 137 -14T94 250Z"/>
            <path id="h9fig8-MJX-2-TEX-I-1D465" d="M52 289Q59 331 106 386T222 442Q257 442 286 424T329 379Q371 442 430 442Q467 442 494 420T522 361Q522 332 508 314T481 292T458 288Q439 288 427 299T415 328Q415 374 465 391Q454 404 425 404Q412 404 406 402Q368 386 350 336Q290 115 290 78Q290 50 306 38T341 26Q378 26 414 59T463 140Q466 150 469 151T485 153H489Q504 153 504 145Q504 144 502 134Q486 77 440 33T333 -11Q263 -11 227 52Q186 -10 133 -10H127Q78 -10 57 16T35 71Q35 103 54 123T99 143Q142 143 142 101Q142 81 130 66T107 46T94 41L91 40Q91 39 97 36T113 29T132 26Q168 26 194 71Q203 87 217 139T245 247T261 313Q266 340 266 352Q266 380 251 392T217 404Q177 404 142 372T93 290Q91 281 88 280T72 278H58Q52 284 52 289Z"/>
            <path id="h9fig8-MJX-2-TEX-N-29" d="M60 749L64 750Q69 750 74 750H86L114 726Q208 641 251 514T294 250Q294 182 284 119T261 12T224 -76T186 -143T145 -194T113 -227T90 -246Q87 -249 86 -250H74Q66 -250 63 -250T58 -247T55 -238Q56 -237 66 -225Q221 -64 221 250T66 725Q56 737 55 738Q55 746 60 749Z"/>
          </defs>
          <g stroke="currentColor" fill="currentColor" stroke-width="0" transform="scale(1,-1)">
            <g data-mml-node="math" data-semantic-type="appl" data-semantic-role="simple function" data-semantic-annotation="clearspeak:simple" data-semantic-id="6" data-semantic-children="0,4" data-semantic-content="5,0" data-semantic-speech="upper F left parenthesis x right parenthesis">
              <g data-mml-node="mi" data-semantic-type="identifier" data-semantic-role="simple function" data-semantic-font="italic" data-semantic-annotation="clearspeak:simple" data-semantic-id="0" data-semantic-parent="6" data-semantic-operator="appl" data-semantic-speech="upper F">
                <use data-c="1D439" xlink:href="#h9fig8-MJX-2-TEX-I-1D439"/>
              </g>
              <g data-mml-node="mo" data-semantic-type="punctuation" data-semantic-role="application" data-semantic-id="5" data-semantic-parent="6" data-semantic-added="true" data-semantic-operator="appl" data-semantic-speech="of" transform="translate(749,0)">
                <use data-c="2061" xlink:href="#h9fig8-MJX-2-TEX-N-2061"/>
              </g>
              <g data-mml-node="mrow" data-semantic-type="fenced" data-semantic-role="leftright" data-semantic-id="4" data-semantic-children="2" data-semantic-content="1,3" data-semantic-parent="6" data-semantic-speech="left parenthesis x right parenthesis" transform="translate(749,0)">
                <g data-mml-node="mo" data-semantic-type="fence" data-semantic-role="open" data-semantic-id="1" data-semantic-parent="4" data-semantic-operator="fenced" data-semantic-speech="left parenthesis">
                  <use data-c="28" xlink:href="#h9fig8-MJX-2-TEX-N-28"/>
                </g>
                <g data-mml-node="mi" data-semantic-type="identifier" data-semantic-role="latinletter" data-semantic-font="italic" data-semantic-annotation="clearspeak:simple" data-semantic-id="2" data-semantic-parent="4" data-semantic-speech="x" transform="translate(389,0)">
                  <use data-c="1D465" xlink:href="#h9fig8-MJX-2-TEX-I-1D465"/>
                </g>
                <g data-mml-node="mo" data-semantic-type="fence" data-semantic-role="close" data-semantic-id="3" data-semantic-parent="4" data-semantic-operator="fenced" data-semantic-speech="right parenthesis" transform="translate(961,0)">
                  <use data-c="29" xlink:href="#h9fig8-MJX-2-TEX-N-29"/>
                </g>
              </g>
            </g>
          </g>
        </svg>
      </g>
    </g>
  </g>
  <path id="h9fig8-__path-0" stroke="blue" stroke-width="2" fill="none" d="M 5.0 123.8 L 5.3 123.9 L 5.6 123.9 L 5.9 124.0 L 6.2 124.1 L 6.5 124.2 L 6.8 124.2 L 7.1 124.3 L 7.4 124.4 L 7.7 124.4 L 8.0 124.5 L 8.3 124.5 L 8.6 124.6 L 8.9 124.6 L 9.2 124.7 L 9.5 124.7 L 9.8 124.8 L 10.1 124.8 L 10.4 124.8 L 10.7 124.9 L 11.0 124.9 L 11.3 124.9 L 11.6 124.9 L 11.9 125.0 L 12.2 125.0 L 12.5 125.0 L 12.8 125.0 L 13.1 125.0 L 13.4 125.0 L 13.7 125.0 L 14.0 125.0 L 14.3 125.0 L 14.6 125.0 L 14.9 125.0 L 15.2 125.0 L 15.5 124.9 L 15.8 124.9 L 16.1 124.9 L 16.4 124.9 L 16.7 124.8 L 17.0 124.8 L 17.3 124.8 L 17.6 124.7 L 17.9 124.7 L 18.2 124.7 L 18.5 124.6 L 18.8 124.6 L 19.1 124.5 L 19.4 124.4 L 19.7 124.4 L 20.0 124.3 L 20.3 124.3 L 20.6 124.2 L 20.9 124.1 L 21.2 124.0 L 21.5 124.0 L 21.8 123.9 L 22.1 123.8 L 22.4 123.7 L 22.7 123.6 L 23.0 123.5 L 23.3 123.5 L 23.6 123.4 L 23.9 123.3 L 24.2 123.2 L 24.5 123.1 L 24.8 122.9 L 25.1 122.8 L 25.4 122.7 L 25.7 122.6 L 26.0 122.5 L 26.3 122.4 L 26.6 122.2 L 26.9 122.1 L 27.2 122.0 L 27.5 121.8 L 27.8 121.7 L 28.1 121.6 L 28.4 121.4 L 28.7 121.3 L 29.0 121.1 L 29.3 121.0 L 29.6 120.8 L 29.9 120.7 L 30.2 120.5 L 30.5 120.4 L 30.8 120.2 L 31.1 120.1 L 31.4 119.9 L 31.7 119.7 L 32.0 119.5 L 32.3 119.4 L 32.6 119.2 L 32.9 119.0 L 33.2 118.8 L 33.5 118.7 L 33.8 118.5 L 34.1 118.3 L 34.4 118.1 L 34.7 117.9 L 35.0 117.7 L 35.3 117.5 L 35.6 117.3 L 35.9 117.1 L 36.2 116.9 L 36.5 116.7 L 36.8 116.5 L 37.1 116.3 L 37.4 116.1 L 37.7 115.8 L 38.0 115.6 L 38.3 115.4 L 38.6 115.2 L 38.9 115.0 L 39.2 114.7 L 39.5 114.5 L 39.8 114.3 L 40.1 114.1 L 40.4 113.8 L 40.7 113.6 L 41.0 113.4 L 41.3 113.1 L 41.6 112.9 L 41.9 112.6 L 42.2 112.4 L 42.5 112.1 L 42.8 111.9 L 43.1 111.7 L 43.4 111.4 L 43.7 111.1 L 44.0 110.9 L 44.3 110.6 L 44.6 110.4 L 44.9 110.1 L 45.2 109.9 L 45.5 109.6 L 45.8 109.3 L 46.1 109.1 L 46.4 108.8 L 46.7 108.5 L 47.0 108.3 L 47.3 108.0 L 47.6 107.7 L 47.9 107.5 L 48.2 107.2 L 48.5 106.9 L 48.8 106.6 L 49.1 106.4 L 49.4 106.1 L 49.7 105.8 L 50.0 105.5 L 50.3 105.2 L 50.6 105.0 L 50.9 104.7 L 51.2 104.4 L 51.5 104.1 L 51.8 103.8 L 52.1 103.5 L 52.4 103.2 L 52.7 103.0 L 53.0 102.7 L 53.3 102.4 L 53.6 102.1 L 53.9 101.8 L 54.2 101.5 L 54.5 101.2 L 54.8 100.9 L 55.1 100.6 L 55.4 100.3 L 55.7 100.0 L 56.0 99.7 L 56.3 99.4 L 56.6 99.1 L 56.9 98.8 L 57.2 98.5 L 57.5 98.2 L 57.8 97.9 L 58.1 97.6 L 58.4 97.3 L 58.7 97.1 L 59.0 96.8 L 59.3 96.5 L 59.6 96.2 L 59.9 95.9 L 60.2 95.6 L 60.5 95.3 L 60.8 95.0 L 61.1 94.7 L 61.4 94.4 L 61.7 94.1 L 62.0 93.8 L 62.3 93.5 L 62.6 93.2 L 62.9 92.9 L 63.2 92.6 L 63.5 92.3 L 63.8 92.0 L 64.1 91.7 L 64.4 91.4 L 64.7 91.1 L 65.0 90.8 L 65.3 90.5 L 65.6 90.2 L 65.9 89.9 L 66.2 89.6 L 66.5 89.3 L 66.8 89.0 L 67.1 88.7 L 67.4 88.4 L 67.7 88.1 L 68.0 87.8 L 68.3 87.5 L 68.6 87.2 L 68.9 87.0 L 69.2 86.7 L 69.5 86.4 L 69.8 86.1 L 70.1 85.8 L 70.4 85.5 L 70.7 85.2 L 71.0 85.0 L 71.3 84.7 L 71.6 84.4 L 71.9 84.1 L 72.2 83.8 L 72.5 83.6 L 72.8 83.3 L 73.1 83.0 L 73.4 82.7 L 73.7 82.5 L 74.0 82.2 L 74.3 81.9 L 74.6 81.6 L 74.9 81.4 L 75.2 81.1 L 75.5 80.8 L 75.8 80.6 L 76.1 80.3 L 76.4 80.1 L 76.7 79.8 L 77.0 79.5 L 77.3 79.3 L 77.6 79.0 L 77.9 78.8 L 78.2 78.5 L 78.5 78.3 L 78.8 78.0 L 79.1 77.8 L 79.4 77.5 L 79.7 77.3 L 80.0 77.0 L 80.3 76.8 L 80.6 76.6 L 80.9 76.3 L 81.2 76.1 L 81.5 75.9 L 81.8 75.6 L 82.1 75.4 L 82.4 75.2 L 82.7 75.0 L 83.0 74.7 L 83.3 74.5 L 83.6 74.3 L 83.9 74.1 L 84.2 73.9 L 84.5 73.7 L 84.8 73.4 L 85.1 73.2 L 85.4 73.0 L 85.7 72.8 L 86.0 72.6 L 86.3 72.4 L 86.6 72.2 L 86.9 72.0 L 87.2 71.8 L 87.5 71.7 L 87.8 71.5 L 88.1 71.3 L 88.4 71.1 L 88.7 70.9 L 89.0 70.7 L 89.3 70.6 L 89.6 70.4 L 89.9 70.2 L 90.2 70.1 L 90.5 69.9 L 90.8 69.7 L 91.1 69.6 L 91.4 69.4 L 91.7 69.3 L 92.0 69.1 L 92.3 69.0 L 92.6 68.8 L 92.9 68.7 L 93.2 68.5 L 93.5 68.4 L 93.8 68.2 L 94.1 68.1 L 94.4 68.0 L 94.7 67.8 L 95.0 67.7 L 95.3 67.6 L 95.6 67.5 L 95.9 67.4 L 96.2 67.2 L 96.5 67.1 L 96.8 67.0 L 97.1 66.9 L 97.4 66.8 L 97.7 66.7 L 98.0 66.6 L 98.3 66.5 L 98.6 66.4 L 98.9 66.3 L 99.2 66.2 L 99.5 66.2 L 99.8 66.1 L 100.1 66.0 L 100.4 65.9 L 100.7 65.9 L 101.0 65.8 L 101.3 65.7 L 101.6 65.7 L 101.9 65.6 L 102.2 65.5 L 102.5 65.5 L 102.8 65.4 L 103.1 65.4 L 103.4 65.3 L 103.7 65.3 L 104.0 65.3 L 104.3 65.2 L 104.6 65.2 L 104.9 65.1 L 105.2 65.1 L 105.5 65.1 L 105.8 65.1 L 106.1 65.1 L 106.4 65.0 L 106.7 65.0 L 107.0 65.0 L 107.3 65.0 L 107.6 65.0 L 107.9 65.0 L 108.2 65.0 L 108.5 65.0 L 108.8 65.0 L 109.1 65.0 L 109.4 65.0 L 109.7 65.1 L 110.0 65.1 L 110.3 65.1 L 110.6 65.1 L 110.9 65.2 L 111.2 65.2 L 111.5 65.2 L 111.8 65.3 L 112.1 65.3 L 112.4 65.3 L 112.7 65.4 L 113.0 65.4 L 113.3 65.5 L 113.6 65.5 L 113.9 65.6 L 114.2 65.7 L 114.5 65.7 L 114.8 65.8 L 115.1 65.9 L 115.4 65.9 L 115.7 66.0 L 116.0 66.1 L 116.3 66.2 L 116.6 66.3 L 116.9 66.3 L 117.2 66.4 L 117.5 66.5 L 117.8 66.6 L 118.1 66.7 L 118.4 66.8 L 118.7 66.9 L 119.0 67.0 L 119.3 67.1 L 119.6 67.3 L 119.9 67.4 L 120.2 67.5 L 120.5 67.6 L 120.8 67.7 L 121.1 67.9 L 121.4 68.0 L 121.7 68.1 L 122.0 68.3 L 122.3 68.4 L 122.6 68.5 L 122.9 68.7 L 123.2 68.8 L 123.5 69.0 L 123.8 69.1 L 124.1 69.3 L 124.4 69.4 L 124.7 69.6 L 125.0 69.8 L 125.3 69.9 L 125.6 70.1 L 125.9 70.3 L 126.2 70.4 L 126.5 70.6 L 126.8 70.8 L 127.1 71.0 L 127.4 71.1 L 127.7 71.3 L 128.0 71.5 L 128.3 71.7 L 128.6 71.9 L 128.9 72.1 L 129.2 72.3 L 129.5 72.5 L 129.8 72.7 L 130.1 72.9 L 130.4 73.1 L 130.7 73.3 L 131.0 73.5 L 131.3 73.7 L 131.6 73.9 L 131.9 74.1 L 132.2 74.3 L 132.5 74.6 L 132.8 74.8 L 133.1 75.0 L 133.4 75.2 L 133.7 75.4 L 134.0 75.7 L 134.3 75.9 L 134.6 76.1 L 134.9 76.4 L 135.2 76.6 L 135.5 76.8 L 135.8 77.1 L 136.1 77.3 L 136.4 77.6 L 136.7 77.8 L 137.0 78.1 L 137.3 78.3 L 137.6 78.6 L 137.9 78.8 L 138.2 79.1 L 138.5 79.3 L 138.8 79.6 L 139.1 79.8 L 139.4 80.1 L 139.7 80.4 L 140.0 80.6 L 140.3 80.9 L 140.6 81.1 L 140.9 81.4 L 141.2 81.7 L 141.5 82.0 L 141.8 82.2 L 142.1 82.5 L 142.4 82.8 L 142.7 83.0 L 143.0 83.3 L 143.3 83.6 L 143.6 83.9 L 143.9 84.2 L 144.2 84.4 L 144.5 84.7 L 144.8 85.0 L 145.1 85.3 L 145.4 85.6 L 145.7 85.8 L 146.0 86.1 L 146.3 86.4 L 146.6 86.7 L 146.9 87.0 L 147.2 87.3 L 147.5 87.6 L 147.8 87.9 L 148.1 88.2 L 148.4 88.5 L 148.7 88.7 L 149.0 89.0 L 149.3 89.3 L 149.6 89.6 L 149.9 89.9 L 150.2 90.2 L 150.5 90.5 L 150.8 90.8 L 151.1 91.1 L 151.4 91.4 L 151.7 91.7 L 152.0 92.0 L 152.3 92.3 L 152.6 92.6 L 152.9 92.9 L 153.2 93.2 L 153.5 93.5 L 153.8 93.8 L 154.1 94.1 L 154.4 94.4 L 154.7 94.7 L 155.0 95.0 L 155.3 95.3 L 155.6 95.6 L 155.9 95.9 L 156.2 96.2 L 156.5 96.5 L 156.8 96.8 L 157.1 97.1 L 157.4 97.4 L 157.7 97.7 L 158.0 98.0 L 158.3 98.3 L 158.6 98.6 L 158.9 98.9 L 159.2 99.2 L 159.5 99.5 L 159.8 99.8 L 160.1 100.1 L 160.4 100.4 L 160.7 100.7 L 161.0 101.0 L 161.3 101.3 L 161.6 101.5 L 161.9 101.8 L 162.2 102.1 L 162.5 102.4 L 162.8 102.7 L 163.1 103.0 L 163.4 103.3 L 163.7 103.6 L 164.0 103.9 L 164.3 104.2 L 164.6 104.4 L 164.9 104.7 L 165.2 105.0 L 165.5 105.3 L 165.8 105.6 L 166.1 105.8 L 166.4 106.1 L 166.7 106.4 L 167.0 106.7 L 167.3 107.0 L 167.6 107.2 L 167.9 107.5 L 168.2 107.8 L 168.5 108.0 L 168.8 108.3 L 169.1 108.6 L 169.4 108.9 L 169.7 109.1 L 170.0 109.4 L 170.3 109.6 L 170.6 109.9 L 170.9 110.2 L 171.2 110.4 L 171.5 110.7 L 171.8 110.9 L 172.1 111.2 L 172.4 111.4 L 172.7 111.7 L 173.0 111.9 L 173.3 112.2 L 173.6 112.4 L 173.9 112.7 L 174.2 112.9 L 174.5 113.2 L 174.8 113.4 L 175.1 113.6 L 175.4 113.9 L 175.7 114.1 L 176.0 114.3 L 176.3 114.6 L 176.6 114.8 L 176.9 115.0 L 177.2 115.2 L 177.5 115.4 L 177.8 115.7 L 178.1 115.9 L 178.4 116.1 L 178.7 116.3 L 179.0 116.5 L 179.3 116.7 L 179.6 116.9 L 179.9 117.1 L 180.2 117.3 L 180.5 117.5 L 180.8 117.7 L 181.1 117.9 L 181.4 118.1 L 181.7 118.3 L 182.0 118.5 L 182.3 118.7 L 182.6 118.9 L 182.9 119.0 L 183.2 119.2 L 183.5 119.4 L 183.8 119.6 L 184.1 119.7 L 184.4 119.9 L 184.7 120.1 L 185.0 120.2 L 185.3 120.4 L 185.6 120.6 L 185.9 120.7 L 186.2 120.9 L 186.5 121.0 L 186.8 121.2 L 187.1 121.3 L 187.4 121.5 L 187.7 121.6 L 188.0 121.7 L 188.3 121.9 L 188.6 122.0 L 188.9 122.1 L 189.2 122.3 L 189.5 122.4 L 189.8 122.5 L 190.1 122.6 L 190.4 122.7 L 190.7 122.9 L 191.0 123.0 L 191.3 123.1 L 191.6 123.2 L 191.9 123.3 L 192.2 123.4 L 192.5 123.5 L 192.8 123.6 L 193.1 123.7 L 193.4 123.7 L 193.7 123.8 L 194.0 123.9 L 194.3 124.0 L 194.6 124.1 L 194.9 124.1 L 195.2 124.2 L 195.5 124.3 L 195.8 124.3 L 196.1 124.4 L 196.4 124.5 L 196.7 124.5 L 197.0 124.6 L 197.3 124.6 L 197.6 124.7 L 197.9 124.7 L 198.2 124.7 L 198.5 124.8 L 198.8 124.8 L 199.1 124.8 L 199.4 124.9 L 199.7 124.9 L 200.0 124.9 L 200.3 124.9 L 200.6 125.0 L 200.9 125.0 L 201.2 125.0 L 201.5 125.0 L 201.8 125.0 L 202.1 125.0 L 202.4 125.0 L 202.7 125.0 L 203.0 125.0 L 203.3 125.0 L 203.6 125.0 L 203.9 124.9 L 204.2 124.9 L 204.5 124.9 L 204.8 124.9 L 205.1 124.9 L 205.4 124.8 L 205.7 124.8 L 206.0 124.7 L 206.3 124.7 L 206.6 124.7 L 206.9 124.6 L 207.2 124.6 L 207.5 124.5 L 207.8 124.5 L 208.1 124.4 L 208.4 124.3 L 208.7 124.3 L 209.0 124.2 L 209.3 124.1 L 209.6 124.1 L 209.9 124.0 L 210.2 123.9 L 210.5 123.8 L 210.8 123.8 L 211.1 123.7 L 211.4 123.6 L 211.7 123.5 L 212.0 123.4 L 212.3 123.3 L 212.6 123.2 L 212.9 123.1 L 213.2 123.0 L 213.5 122.9 L 213.8 122.8 L 214.1 122.6 L 214.4 122.5 L 214.7 122.4 L 215.0 122.3 L 215.3 122.2 L 215.6 122.0 L 215.9 121.9 L 216.2 121.8 L 216.5 121.6 L 216.8 121.5 L 217.1 121.3 L 217.4 121.2 L 217.7 121.0 L 218.0 120.9 L 218.3 120.7 L 218.6 120.6 L 218.9 120.4 L 219.2 120.3 L 219.5 120.1 L 219.8 119.9 L 220.1 119.8 L 220.4 119.6 L 220.7 119.4 L 221.0 119.3 L 221.3 119.1 L 221.6 118.9 L 221.9 118.7 L 222.2 118.5 L 222.5 118.3 L 222.8 118.2 L 223.1 118.0 L 223.4 117.8 L 223.7 117.6 L 224.0 117.4 L 224.3 117.2 L 224.6 117.0 L 224.9 116.8 L 225.2 116.6 L 225.5 116.3 L 225.8 116.1 L 226.1 115.9 L 226.4 115.7 L 226.7 115.5 L 227.0 115.3 L 227.3 115.0 L 227.6 114.8 L 227.9 114.6 L 228.2 114.4 L 228.5 114.1 L 228.8 113.9 L 229.1 113.7 L 229.4 113.4 L 229.7 113.2 L 230.0 113.0 L 230.3 112.7 L 230.6 112.5 L 230.9 112.2 L 231.2 112.0 L 231.5 111.7 L 231.8 111.5 L 232.1 111.2 L 232.4 111.0 L 232.7 110.7 L 233.0 110.5 L 233.3 110.2 L 233.6 109.9 L 233.9 109.7 L 234.2 109.4 L 234.5 109.2 L 234.8 108.9 L 235.1 108.6 L 235.4 108.4 L 235.7 108.1 L 236.0 107.8 L 236.3 107.5 L 236.6 107.3 L 236.9 107.0 L 237.2 106.7 L 237.5 106.4 L 237.8 106.2 L 238.1 105.9 L 238.4 105.6 L 238.7 105.3 L 239.0 105.0 L 239.3 104.8 L 239.6 104.5 L 239.9 104.2 L 240.2 103.9 L 240.5 103.6 L 240.8 103.3 L 241.1 103.0 L 241.4 102.8 L 241.7 102.5 L 242.0 102.2 L 242.3 101.9 L 242.6 101.6 L 242.9 101.3 L 243.2 101.0 L 243.5 100.7 L 243.8 100.4 L 244.1 100.1 L 244.4 99.8 L 244.7 99.5 L 245.0 99.2 L 245.3 98.9 L 245.6 98.6 L 245.9 98.3 L 246.2 98.0 L 246.5 97.7 L 246.8 97.4 L 247.1 97.1 L 247.4 96.8 L 247.7 96.5 L 248.0 96.2 L 248.3 95.9 L 248.6 95.6 L 248.9 95.3 L 249.2 95.0 L 249.5 94.7 L 249.8 94.4 L 250.1 94.1 L 250.4 93.8 L 250.7 93.5 L 251.0 93.2 L 251.3 92.9 L 251.6 92.7 L 251.9 92.4 L 252.2 92.1 L 252.5 91.8 L 252.8 91.5 L 253.1 91.2 L 253.4 90.9 L 253.7 90.6 L 254.0 90.3 L 254.3 90.0 L 254.6 89.7 L 254.9 89.4 L 255.2 89.1 L 255.5 88.8 L 255.8 88.5 L 256.1 88.2 L 256.4 87.9 L 256.7 87.6 L 257.0 87.3 L 257.3 87.0 L 257.6 86.8 L 257.9 86.5 L 258.2 86.2 L 258.5 85.9 L 258.8 85.6 L 259.1 85.3 L 259.4 85.0 L 259.7 84.8 L 260.0 84.5 L 260.3 84.2 L 260.6 83.9 L 260.9 83.6 L 261.2 83.4 L 261.5 83.1 L 261.8 82.8 L 262.1 82.5 L 262.4 82.3 L 262.7 82.0 L 263.0 81.7 L 263.3 81.5 L 263.6 81.2 L 263.9 80.9 L 264.2 80.7 L 264.5 80.4 L 264.8 80.1 L 265.1 79.9 L 265.4 79.6 L 265.7 79.4 L 266.0 79.1 L 266.3 78.9 L 266.6 78.6 L 266.9 78.3 L 267.2 78.1 L 267.5 77.9 L 267.8 77.6 L 268.1 77.4 L 268.4 77.1 L 268.7 76.9 L 269.0 76.6 L 269.3 76.4 L 269.6 76.2 L 269.9 75.9 L 270.2 75.7 L 270.5 75.5 L 270.8 75.3 L 271.1 75.0 L 271.4 74.8 L 271.7 74.6 L 272.0 74.4 L 272.3 74.2 L 272.6 73.9 L 272.9 73.7 L 273.2 73.5 L 273.5 73.3 L 273.8 73.1 L 274.1 72.9 L 274.4 72.7 L 274.7 72.5 L 275.0 72.3 L 275.3 72.1 L 275.6 71.9 L 275.9 71.7 L 276.2 71.5 L 276.5 71.3 L 276.8 71.2 L 277.1 71.0 L 277.4 70.8 L 277.7 70.6 L 278.0 70.5 L 278.3 70.3 L 278.6 70.1 L 278.9 69.9 L 279.2 69.8 L 279.5 69.6 L 279.8 69.5 L 280.1 69.3 L 280.4 69.2 L 280.7 69.0 L 281.0 68.9 L 281.3 68.7 L 281.6 68.6 L 281.9 68.4 L 282.2 68.3 L 282.5 68.2 L 282.8 68.0 L 283.1 67.9 L 283.4 67.8 L 283.7 67.6 L 284.0 67.5 L 284.3 67.4 L 284.6 67.3 L 284.9 67.2 L 285.2 67.1 L 285.5 66.9 L 285.8 66.8 L 286.1 66.7 L 286.4 66.6 L 286.7 66.5 L 287.0 66.5 L 287.3 66.4 L 287.6 66.3 L 287.9 66.2 L 288.2 66.1 L 288.5 66.0 L 288.8 66.0 L 289.1 65.9 L 289.4 65.8 L 289.7 65.7 L 290.0 65.7 L 290.3 65.6 L 290.6 65.6 L 290.9 65.5 L 291.2 65.4 L 291.5 65.4 L 291.8 65.3 L 292.1 65.3 L 292.4 65.3 L 292.7 65.2 L 293.0 65.2 L 293.3 65.2 L 293.6 65.1 L 293.9 65.1 L 294.2 65.1 L 294.5 65.1 L 294.8 65.0 L 295.1 65.0 L 295.4 65.0 L 295.7 65.0 L 296.0 65.0 L 296.3 65.0 L 296.6 65.0 L 296.9 65.0 L 297.2 65.0 L 297.5 65.0 L 297.8 65.0 L 298.1 65.0 L 298.4 65.1 L 298.7 65.1 L 299.0 65.1 L 299.3 65.1 L 299.6 65.2 L 299.9 65.2 L 300.2 65.2 L 300.5 65.3 L 300.8 65.3 L 301.1 65.4 L 301.4 65.4 L 301.7 65.5 L 302.0 65.5 L 302.3 65.6 L 302.6 65.6 L 302.9 65.7 L 303.2 65.8 L 303.5 65.8 L 303.8 65.9 L 304.1 66.0 L 304.4 66.1 L 304.7 66.1 L 305.0 66.2" clip-path="url(#h9fig8-__clipPath-1)"/>
</svg>
